<svg width="105" height="80" viewBox="0 0 105 80" fill="none" xmlns="http://www.w3.org/2000/svg">
<path fill-rule="evenodd" clip-rule="evenodd" d="M51.7778 36.8889C60.9498 36.8889 68.4444 29.3603 68.4444 20C68.4444 17.5474 67.9299 15.2205 67.0055 13.1219C68.0417 12.8543 68.9803 12.3438 69.7568 11.6547C70.9116 14.1946 71.5556 17.0213 71.5556 20C71.5556 31.0457 62.7007 40 51.7778 40C40.8548 40 32 31.0457 32 20C32 8.9543 40.8548 0 51.7778 0C54.9161 0 57.8836 0.73916 60.5195 2.05471C59.7992 2.80645 59.2531 3.72659 58.9464 4.75017C56.7724 3.69889 54.3406 3.11111 51.7778 3.11111C42.6057 3.11111 35.1111 10.6397 35.1111 20C35.1111 29.3603 42.6057 36.8889 51.7778 36.8889ZM65.3336 8.44448C66.3155 8.44448 67.1114 7.64854 67.1114 6.66671C67.1114 5.68486 66.3155 4.88893 65.3336 4.88893C64.3518 4.88893 63.5558 5.68486 63.5558 6.66671C63.5558 7.64854 64.3518 8.44448 65.3336 8.44448ZM51.7781 30.6667C57.4989 30.6667 62.2225 25.9389 62.2225 20C62.2225 14.0611 57.4989 9.33333 51.7781 9.33333C46.0573 9.33333 41.3336 14.0611 41.3336 20C41.3336 25.9389 46.0573 30.6667 51.7781 30.6667ZM51.7781 33.7778C59.2646 33.7778 65.3336 27.6093 65.3336 20C65.3336 12.3907 59.2646 6.22222 51.7781 6.22222C44.2916 6.22222 38.2225 12.3907 38.2225 20C38.2225 27.6093 44.2916 33.7778 51.7781 33.7778ZM50.1482 17.1435C50.7001 16.7723 51.3446 16.5768 52.0003 16.5768V13.7778C50.7606 13.7778 49.5521 14.148 48.528 14.8367C47.5043 15.5251 46.7125 16.4993 46.2464 17.6317C45.7805 18.7637 45.6592 20.0073 45.8962 21.2066L48.7048 20.6752C48.572 20.0035 48.6405 19.3076 48.8999 18.6772C49.1592 18.0472 49.5958 17.5149 50.1482 17.1435ZM55.3619 20C55.3619 20.6857 55.1597 21.3529 54.7852 21.917C54.411 22.4807 53.8833 22.9139 53.2735 23.1681C52.6642 23.4221 51.9962 23.4879 51.3522 23.359L50.7788 26.1012C51.9938 26.3444 53.2528 26.2192 54.3947 25.7431C55.5362 25.2673 56.5052 24.4643 57.1841 23.4418C57.8627 22.4197 58.2225 21.222 58.2225 20H55.3619Z" fill="#F86F2D"/>
<path d="M105 59.5C105 60.8807 103.881 62 102.5 62C101.119 62 100 60.8807 100 59.5C100 58.1193 101.119 57 102.5 57C103.881 57 105 58.1193 105 59.5Z" fill="#F86F2D"/>
<path d="M4.79642 79.5932V71.0196C4.79642 69.0795 6.0111 67.8279 7.91098 67.8279C9.56169 67.8279 10.6518 69.1108 10.6518 71.0821V79.5932H15.4482V69.9244C15.4482 65.8253 13.2992 63.4472 9.59284 63.4472C7.56838 63.4472 5.79308 64.2295 4.82757 65.575L4.51611 63.9478H0V79.5932H4.79642Z" fill="white"/>
<path d="M29.2284 63.9478V72.0834C29.2284 74.6493 28.3875 75.7132 26.3319 75.7132C24.3697 75.7132 23.4976 74.5867 23.4976 72.0209V63.9478H18.7012V73.7731C18.7012 77.6219 20.8814 80 24.432 80C26.3007 80 28.2318 79.1239 29.1973 77.8409L29.5087 79.5932H34.0248V63.9478H29.2284Z" fill="white"/>
<path d="M42.1402 79.5932L42.3894 77.5906C43.2303 79.03 45.099 80 47.2792 80C51.7019 80 54.7853 76.7771 54.7853 71.927C54.7853 66.8266 52.0134 63.4159 47.653 63.4159C45.4105 63.4159 43.3549 64.3546 42.4205 65.7627V56H37.6241V79.5932H42.1402ZM42.4517 71.6767C42.4517 69.3299 44.0089 67.7653 46.2514 67.7653C48.5251 67.7653 49.9577 69.3611 49.9577 71.6767C49.9577 73.9922 48.5251 75.588 46.2514 75.588C44.0089 75.588 42.4517 74.0235 42.4517 71.6767Z" fill="white"/>
<path d="M62.0624 79.5932L62.3116 77.5906C63.1525 79.03 65.0213 80 67.2015 80C71.6241 80 74.7075 76.7771 74.7075 71.927C74.7075 66.8266 71.9356 63.4159 67.5752 63.4159C65.3327 63.4159 63.2771 64.3546 62.3427 65.7627V56H57.5463V79.5932H62.0624ZM62.3739 71.6767C62.3739 69.3299 63.9312 67.7653 66.1737 67.7653C68.4473 67.7653 69.88 69.3611 69.88 71.6767C69.88 73.9922 68.4473 75.588 66.1737 75.588C63.9312 75.588 62.3739 74.0235 62.3739 71.6767Z" fill="white"/>
<path d="M82.265 79.5932V56H77.4685V79.5932H82.265Z" fill="white"/>
<path d="M93.089 80C97.356 80 100.439 77.7784 101 74.3051H96.6085C96.2659 75.4316 94.9889 76.0887 93.1825 76.0887C91.0646 76.0887 89.9122 75.1186 89.6319 73.0535L100.938 72.9909V71.7705C100.938 66.6701 97.8854 63.4472 92.9956 63.4472C88.2926 63.4472 85.0223 66.8579 85.0223 71.7392C85.0223 76.558 88.386 80 93.089 80ZM93.0267 67.3585C94.9578 67.3585 96.1724 68.4224 96.1724 70.0808H89.6942C90.0679 68.2034 91.1269 67.3585 93.0267 67.3585Z" fill="white"/>
</svg>
